0
SECTION
2
HEADER
9
$INSUNITS
70
4
9
$ACADVER
1
AC1014
9
$HANDSEED
5
FFFF
0
ENDSEC
0
SECTION
2
TABLES
0
TABLE
2
VPORT
5
8
100
AcDbSymbolTable
0
ENDTAB
0
TABLE
2
LTYPE
5
5
100
AcDbSymbolTable
0
LTYPE
5
14
100
AcDbSymbolTableRecord
100
AcDbLinetypeTableRecord
2
BYBLOCK
70
0
0
LTYPE
5
15
100
AcDbSymbolTableRecord
100
AcDbLinetypeTableRecord
2
BYLAYER
70
0
0
ENDTAB
0
TABLE
2
LAYER
5
2
100
AcDbSymbolTable
70
2
0
LAYER
5
50
100
AcDbSymbolTableRecord
100
AcDbLayerTableRecord
2
0
70
0
6
CONTINUOUS
0
ENDTAB
0
TABLE
2
STYLE
5
3
100
AcDbSymbolTable
70
1
0
STYLE
5
11
100
AcDbSymbolTableRecord
100
AcDbTextStyleTableRecord
2
STANDARD
70
0
0
ENDTAB
0
TABLE
2
VIEW
5
6
100
AcDbSymbolTable
70
0
0
ENDTAB
0
TABLE
2
UCS
5
7
100
AcDbSymbolTable
70
0
0
ENDTAB
0
TABLE
2
APPID
5
9
100
AcDbSymbolTable
70
2
0
APPID
5
12
100
AcDbSymbolTableRecord
100
AcDbRegAppTableRecord
2
ACAD
70
0
0
ENDTAB
0
TABLE
2
DIMSTYLE
5
A
100
AcDbSymbolTable
70
1
0
ENDTAB
0
TABLE
2
BLOCK_RECORD
5
1
100
AcDbSymbolTable
70
1
0
BLOCK_RECORD
5
1F
100
AcDbSymbolTableRecord
100
AcDbBlockTableRecord
2
*MODEL_SPACE
0
BLOCK_RECORD
5
1B
100
AcDbSymbolTableRecord
100
AcDbBlockTableRecord
2
*PAPER_SPACE
0
ENDTAB
0
ENDSEC
0
SECTION
2
BLOCKS
0
BLOCK
5
20
100
AcDbEntity
100
AcDbBlockBegin
2
*MODEL_SPACE
0
ENDBLK
5
21
100
AcDbEntity
100
AcDbBlockEnd
0
BLOCK
5
1C
100
AcDbEntity
100
AcDbBlockBegin
2
*PAPER_SPACE
0
ENDBLK
5
1D
100
AcDbEntity
100
AcDbBlockEnd
0
ENDSEC
0
SECTION
2
ENTITIES
0
CIRCLE
5
100
100
AcDbEntity
8
0
100
AcDbCircle
10
-53.233477856581757
20
48.999999999999957
30
0
40
1.25
210
-0
220
0
230
1
0
CIRCLE
5
101
100
AcDbEntity
8
0
100
AcDbCircle
10
-53.233477856581793
20
-48.999999999999979
30
0
40
1.25
210
-0
220
0
230
1
0
LWPOLYLINE
5
102
100
AcDbEntity
8
0
100
AcDbPolyline
90
28
70
1
43
0.0
10
-62.483477856581757
20
47.499999999999972
10
-62.483477856581793
20
-47.499999999999957
10
-57.858477856581786
20
-47.499999999999957
10
-57.858477856581786
20
-50.499999999999964
10
-48.608477856581793
20
-50.499999999999979
10
-48.608477856581793
20
-47.499999999999986
10
-43.983477856581786
20
-47.499999999999986
10
-43.983477856581786
20
-20.410000000000004
10
-46.983477856581786
20
-20.410000000000004
10
-46.983477856581779
20
-1.2499999999999956
10
-49.883477856581777
20
-1.2499999999999949
10
-49.883477856581777
20
-2.4500000000000033
10
-51.783477856581783
20
-2.4500000000000028
10
-51.783477856581783
20
-1.2499999999999942
10
-53.983477856581771
20
-1.2499999999999936
10
-53.983477856581779
20
1.2500000000000047
10
-51.783477856581783
20
1.250000000000004
10
-51.783477856581769
20
2.4499999999999948
10
-49.88347785658177
20
2.4499999999999944
10
-49.883477856581777
20
1.2500000000000033
10
-46.983477856581779
20
1.2500000000000024
10
-46.983477856581771
20
20.409999999999997
10
-43.983477856581771
20
20.409999999999997
10
-43.983477856581757
20
47.499999999999972
10
-48.608477856581764
20
47.499999999999964
10
-48.608477856581764
20
50.499999999999964
10
-57.858477856581764
20
50.499999999999964
10
-57.858477856581757
20
47.499999999999964
0
CIRCLE
5
103
100
AcDbEntity
8
0
100
AcDbCircle
10
-73.733477856581743
20
49
30
0
40
1.2500000000000002
210
-0
220
0
230
1
0
CIRCLE
5
104
100
AcDbEntity
8
0
100
AcDbCircle
10
-73.733477856581743
20
-49
30
0
40
1.2500000000000002
210
-0
220
0
230
1
0
LWPOLYLINE
5
105
100
AcDbEntity
8
0
100
AcDbPolyline
90
28
70
1
43
0.0
10
-82.983477856581771
20
47.500000000000007
10
-82.983477856581771
20
-47.499999999999993
10
-78.358477856581757
20
-47.499999999999993
10
-78.358477856581757
20
-50.499999999999986
10
-69.108477856581757
20
-50.500000000000007
10
-69.108477856581757
20
-47.500000000000007
10
-64.483477856581743
20
-47.500000000000007
10
-64.483477856581743
20
-20.410000000000011
10
-67.483477856581743
20
-20.410000000000011
10
-67.483477856581743
20
-1.2499999999999911
10
-70.383477856581749
20
-1.2499999999999911
10
-70.383477856581749
20
-2.4500000000000006
10
-72.283477856581754
20
-2.4500000000000006
10
-72.283477856581754
20
-1.2499999999999911
10
-74.483477856581743
20
-1.2499999999999911
10
-74.483477856581743
20
1.2500000000000089
10
-72.283477856581754
20
1.2500000000000089
10
-72.283477856581754
20
2.4500000000000006
10
-70.383477856581749
20
2.4500000000000006
10
-70.383477856581749
20
1.2500000000000089
10
-67.483477856581743
20
1.2500000000000089
10
-67.483477856581743
20
20.410000000000011
10
-64.483477856581743
20
20.410000000000011
10
-64.483477856581743
20
47.500000000000007
10
-69.108477856581757
20
47.500000000000007
10
-69.108477856581757
20
50.500000000000007
10
-78.358477856581757
20
50.500000000000007
10
-78.358477856581757
20
47.500000000000007
0
LWPOLYLINE
5
106
100
AcDbEntity
8
0
100
AcDbPolyline
90
4
70
1
43
0.0
10
-90.741570129934246
20
1.831876241804939
10
-90.741570129934246
20
-10.16812375819508
10
-97.74157012993426
20
-10.168123758195078
10
-97.74157012993426
20
1.8318762418049417
0
LWPOLYLINE
5
107
100
AcDbEntity
8
0
100
AcDbPolyline
90
52
70
1
43
0.0
10
-85.241570129934274
20
-36.168123758195108
10
-85.241570129934274
20
-13.668123758195092
10
-88.24157012993426
20
-13.66812375819509
10
-88.241570129934246
20
13.081876241804943
10
-91.141570129934237
20
13.081876241804945
10
-91.141570129934237
20
11.881876241804941
10
-93.041570129934229
20
11.881876241804941
10
-93.041570129934257
20
13.081876241804949
10
-95.241570129934246
20
13.081876241804949
10
-95.241570129934246
20
15.581876241804949
10
-93.041570129934229
20
15.581876241804949
10
-93.041570129934257
20
16.781876241804945
10
-91.141570129934252
20
16.781876241804945
10
-91.141570129934237
20
15.581876241804949
10
-88.241570129934246
20
15.581876241804951
10
-88.241570129934246
20
18.831876241804945
10
-85.241570129934246
20
18.831876241804945
10
-85.241570129934246
20
34.331876241804963
10
-90.046570129934224
20
34.331876241804956
10
-90.046570129934224
20
31.35467402952214
10
-93.241570129934246
20
31.354674029522158
10
-93.241570129934246
20
28.454674029522149
10
-92.041570129934257
20
28.454674029522145
10
-92.041570129934257
20
26.55467402952214
10
-93.241570129934246
20
26.55467402952214
10
-93.241570129934246
20
24.354674029522144
10
-95.741570129934246
20
24.354674029522144
10
-95.741570129934246
20
26.55467402952214
10
-96.941570129934263
20
26.55467402952214
10
-96.941570129934235
20
28.454674029522145
10
-95.741570129934246
20
28.454674029522145
10
-95.741570129934246
20
31.354674029522144
10
-98.936570129934239
20
31.354674029522151
10
-98.936570129934239
20
34.331876241804963
10
-103.74157012993423
20
34.331876241804963
10
-103.74157012993425
20
-36.168123758195094
10
-98.936570129934267
20
-36.168123758195094
10
-98.936570129934267
20
-33.168123758195101
10
-95.741570129934274
20
-33.168123758195101
10
-95.741570129934274
20
-31.167347514021657
10
-96.941570129934291
20
-31.167347514021657
10
-96.941570129934277
20
-29.267347514021651
10
-95.74157012993426
20
-29.267347514021647
10
-95.74157012993426
20
-27.067347514021648
10
-93.24157012993426
20
-27.067347514021648
10
-93.24157012993426
20
-29.267347514021651
10
-92.041570129934286
20
-29.267347514021651
10
-92.041570129934286
20
-31.167347514021657
10
-93.241570129934274
20
-31.16734751402166
10
-93.241570129934274
20
-33.168123758195101
10
-90.046570129934267
20
-33.168123758195101
10
-90.046570129934267
20
-36.168123758195101
0
LWPOLYLINE
5
108
100
AcDbEntity
8
0
100
AcDbPolyline
90
56
70
1
43
0.0
10
-117.25324418617362
20
6.8399586613779952
10
-108.7532441861736
20
6.8399586613779553
10
-108.75324418617356
20
12.989958661377955
10
-111.65324418617358
20
12.989958661377969
10
-111.65324418617358
20
11.78995866137797
10
-113.55324418617357
20
11.78995866137798
10
-113.55324418617359
20
12.98995866137798
10
-115.75324418617357
20
12.989958661377992
10
-115.75324418617356
20
15.489958661377994
10
-113.55324418617356
20
15.48995866137798
10
-113.55324418617357
20
16.689958661377979
10
-111.65324418617357
20
16.689958661377972
10
-111.65324418617357
20
15.489958661377974
10
-108.75324418617355
20
15.489958661377958
10
-108.75324418617355
20
18.649958661377958
10
-105.75324418617355
20
18.649958661377941
10
-105.75324418617348
20
34.239958661377948
10
-110.55824418617348
20
34.239958661377969
10
-110.55824418617348
20
31.362753764694805
10
-113.7532441861735
20
31.362753764694826
10
-113.75324418617352
20
28.462753764694813
10
-112.5532441861735
20
28.46275376469481
10
-112.55324418617352
20
26.562753764694808
10
-113.75324418617352
20
26.562753764694811
10
-113.75324418617353
20
24.362753764694816
10
-116.25324418617353
20
24.36275376469483
10
-116.25324418617352
20
26.562753764694822
10
-117.45324418617352
20
26.562753764694826
10
-117.45324418617352
20
28.462753764694831
10
-116.25324418617352
20
28.462753764694824
10
-116.2532441861735
20
31.362753764694826
10
-119.44824418617357
20
31.362753764694844
10
-119.4482441861735
20
34.239958661378012
10
-124.25324418617349
20
34.23995866137804
10
-124.25324418617382
20
-36.260041338622003
10
-119.44824418617384
20
-36.260041338622024
10
-119.44824418617381
20
-33.260043934389529
10
-116.25324418617382
20
-33.260043934389543
10
-116.2532441861738
20
-31.359267601583227
10
-117.45324418617383
20
-31.35926760158322
10
-117.45324418617381
20
-29.459267601583218
10
-116.2532441861738
20
-29.459267601583221
10
-116.25324418617379
20
-27.259267601583229
10
-113.7532441861738
20
-27.25926760158324
10
-113.7532441861738
20
-29.459267601583239
10
-112.5532441861738
20
-29.459267601583242
10
-112.55324418617383
20
-31.359267601583241
10
-113.7532441861738
20
-31.359267601583237
10
-113.75324418617383
20
-33.260043934389557
10
-110.60365691700758
20
-33.260043934389564
10
-110.6036569170076
20
-36.260041338622059
10
-105.75324418617382
20
-36.260041338622088
10
-105.7532441861737
20
-13.670041338622081
10
-108.7532441861737
20
-13.67004133862206
10
-108.7532441861737
20
-11.860041338622068
10
-117.2532441861737
20
-11.860041338622022
0
ENDSEC
0
SECTION
2
OBJECTS
0
DICTIONARY
5
C
100
AcDbDictionary
3
ACAD_GROUP
350
D
3
ACAD_MLINESTYLE
350
17
0
DICTIONARY
5
D
100
AcDbDictionary
0
DICTIONARY
5
1A
330
C
100
AcDbDictionary
0
DICTIONARY
5
17
100
AcDbDictionary
0
ENDSEC
0
EOF
