0
SECTION
2
HEADER
9
$INSUNITS
70
4
9
$ACADVER
1
AC1014
9
$HANDSEED
5
FFFF
0
ENDSEC
0
SECTION
2
TABLES
0
TABLE
2
VPORT
5
8
100
AcDbSymbolTable
0
ENDTAB
0
TABLE
2
LTYPE
5
5
100
AcDbSymbolTable
0
LTYPE
5
14
100
AcDbSymbolTableRecord
100
AcDbLinetypeTableRecord
2
BYBLOCK
70
0
0
LTYPE
5
15
100
AcDbSymbolTableRecord
100
AcDbLinetypeTableRecord
2
BYLAYER
70
0
0
ENDTAB
0
TABLE
2
LAYER
5
2
100
AcDbSymbolTable
70
2
0
LAYER
5
50
100
AcDbSymbolTableRecord
100
AcDbLayerTableRecord
2
0
70
0
6
CONTINUOUS
0
ENDTAB
0
TABLE
2
STYLE
5
3
100
AcDbSymbolTable
70
1
0
STYLE
5
11
100
AcDbSymbolTableRecord
100
AcDbTextStyleTableRecord
2
STANDARD
70
0
0
ENDTAB
0
TABLE
2
VIEW
5
6
100
AcDbSymbolTable
70
0
0
ENDTAB
0
TABLE
2
UCS
5
7
100
AcDbSymbolTable
70
0
0
ENDTAB
0
TABLE
2
APPID
5
9
100
AcDbSymbolTable
70
2
0
APPID
5
12
100
AcDbSymbolTableRecord
100
AcDbRegAppTableRecord
2
ACAD
70
0
0
ENDTAB
0
TABLE
2
DIMSTYLE
5
A
100
AcDbSymbolTable
70
1
0
ENDTAB
0
TABLE
2
BLOCK_RECORD
5
1
100
AcDbSymbolTable
70
1
0
BLOCK_RECORD
5
1F
100
AcDbSymbolTableRecord
100
AcDbBlockTableRecord
2
*MODEL_SPACE
0
BLOCK_RECORD
5
1B
100
AcDbSymbolTableRecord
100
AcDbBlockTableRecord
2
*PAPER_SPACE
0
ENDTAB
0
ENDSEC
0
SECTION
2
BLOCKS
0
BLOCK
5
20
100
AcDbEntity
100
AcDbBlockBegin
2
*MODEL_SPACE
0
ENDBLK
5
21
100
AcDbEntity
100
AcDbBlockEnd
0
BLOCK
5
1C
100
AcDbEntity
100
AcDbBlockBegin
2
*PAPER_SPACE
0
ENDBLK
5
1D
100
AcDbEntity
100
AcDbBlockEnd
0
ENDSEC
0
SECTION
2
ENTITIES
0
LINE
5
100
100
AcDbEntity
8
0
100
AcDbLine
10
-102.32587904970784
20
24.942018683760509
30
0
11
-102.32587904970784
21
29.342018683760504
31
0
0
LINE
5
101
100
AcDbEntity
8
0
100
AcDbLine
10
-102.32587904970784
20
29.342018683760504
30
0
11
-85.700879049707837
21
29.342018683760504
31
0
0
LINE
5
102
100
AcDbEntity
8
0
100
AcDbLine
10
-85.700879049707837
20
29.342018683760504
30
0
11
-85.700879049707837
21
24.942018683760505
31
0
0
LINE
5
103
100
AcDbEntity
8
0
100
AcDbLine
10
-85.700879049707837
20
24.942018683760505
30
0
11
-69.075879049707851
21
24.942018683760505
31
0
0
LINE
5
104
100
AcDbEntity
8
0
100
AcDbLine
10
-69.075879049707822
20
24.942018683760505
30
0
11
-69.075879049707822
21
29.342018683760504
31
0
0
LINE
5
105
100
AcDbEntity
8
0
100
AcDbLine
10
-69.075879049707822
20
29.342018683760504
30
0
11
-52.450879049707844
21
29.342018683760504
31
0
0
LINE
5
106
100
AcDbEntity
8
0
100
AcDbLine
10
-52.450879049707844
20
29.342018683760504
30
0
11
-52.450879049707844
21
24.942018683760505
31
0
0
LINE
5
107
100
AcDbEntity
8
0
100
AcDbLine
10
-52.450879049707844
20
24.942018683760505
30
0
11
-35.825879049707851
21
24.942018683760505
31
0
0
LINE
5
108
100
AcDbEntity
8
0
100
AcDbLine
10
-35.825879049707822
20
24.942018683760505
30
0
11
-35.825879049707822
21
29.342018683760504
31
0
0
LINE
5
109
100
AcDbEntity
8
0
100
AcDbLine
10
-35.825879049707822
20
29.342018683760504
30
0
11
-19.200879049707844
21
29.342018683760504
31
0
0
LINE
5
110
100
AcDbEntity
8
0
100
AcDbLine
10
-19.200879049707844
20
29.342018683760504
30
0
11
-19.200879049707844
21
24.942018683760505
31
0
0
LINE
5
111
100
AcDbEntity
8
0
100
AcDbLine
10
-19.200879049707844
20
24.942018683760505
30
0
11
-2.5758790497078454
21
24.942018683760505
31
0
0
LINE
5
112
100
AcDbEntity
8
0
100
AcDbLine
10
-2.5758790497078188
20
24.942018683760505
30
0
11
-2.5758790497078188
21
29.342018683760504
31
0
0
LINE
5
113
100
AcDbEntity
8
0
100
AcDbLine
10
-2.5758790497078188
20
29.342018683760504
30
0
11
14.049120950292169
21
29.342018683760504
31
0
0
LINE
5
114
100
AcDbEntity
8
0
100
AcDbLine
10
14.049120950292169
20
29.342018683760504
30
0
11
14.049120950292169
21
24.942018683760505
31
0
0
LINE
5
115
100
AcDbEntity
8
0
100
AcDbLine
10
14.049120950292169
20
24.942018683760505
30
0
11
30.674120950292163
21
24.942018683760505
31
0
0
LINE
5
116
100
AcDbEntity
8
0
100
AcDbLine
10
58.706417836658304
20
31.881149283674418
30
0
11
58.706417836658304
21
36.281149283674409
31
0
0
LINE
5
117
100
AcDbEntity
8
0
100
AcDbLine
10
58.706417836658304
20
36.281149283674409
30
0
11
75.331417836658289
21
36.281149283674409
31
0
0
LINE
5
118
100
AcDbEntity
8
0
100
AcDbLine
10
75.331417836658289
20
36.281149283674409
30
0
11
75.331417836658289
21
31.881149283674407
31
0
0
LINE
5
119
100
AcDbEntity
8
0
100
AcDbLine
10
91.956417836658318
20
31.881149283674407
30
0
11
91.956417836658318
21
36.281149283674409
31
0
0
LINE
5
120
100
AcDbEntity
8
0
100
AcDbLine
10
91.956417836658318
20
36.281149283674409
30
0
11
108.58141783665829
21
36.281149283674409
31
0
0
LINE
5
121
100
AcDbEntity
8
0
100
AcDbLine
10
108.58141783665829
20
36.281149283674409
30
0
11
108.58141783665829
21
31.881149283674407
31
0
0
LINE
5
122
100
AcDbEntity
8
0
100
AcDbLine
10
125.2064178366583
20
31.881149283674407
30
0
11
125.2064178366583
21
36.281149283674409
31
0
0
LINE
5
123
100
AcDbEntity
8
0
100
AcDbLine
10
125.2064178366583
20
36.281149283674409
30
0
11
141.83141783665829
21
36.281149283674409
31
0
0
LINE
5
124
100
AcDbEntity
8
0
100
AcDbLine
10
141.83141783665829
20
36.281149283674409
30
0
11
141.83141783665829
21
31.881149283674407
31
0
0
LINE
5
125
100
AcDbEntity
8
0
100
AcDbLine
10
141.83141783665829
20
31.881149283674407
30
0
11
158.45641783665829
21
31.881149283674407
31
0
0
LINE
5
126
100
AcDbEntity
8
0
100
AcDbLine
10
158.45641783665829
20
31.881149283674407
30
0
11
158.45641783665829
21
36.281149283674409
31
0
0
LINE
5
127
100
AcDbEntity
8
0
100
AcDbLine
10
158.45641783665829
20
36.281149283674409
30
0
11
175.08141783665832
21
36.281149283674409
31
0
0
LINE
5
128
100
AcDbEntity
8
0
100
AcDbLine
10
175.08141783665832
20
36.281149283674409
30
0
11
175.08141783665832
21
31.881149283674407
31
0
0
LINE
5
129
100
AcDbEntity
8
0
100
AcDbLine
10
175.08141783665832
20
31.881149283674407
30
0
11
191.70641783665829
21
31.881149283674397
31
0
0
LINE
5
130
100
AcDbEntity
8
0
100
AcDbLine
10
108.58141783665829
20
31.881149283674407
30
0
11
125.20641783665826
21
31.881149283674407
31
0
0
LINE
5
131
100
AcDbEntity
8
0
100
AcDbLine
10
75.331417836658289
20
31.881149283674407
30
0
11
91.956417836658275
21
31.881149283674407
31
0
0
LINE
5
132
100
AcDbEntity
8
0
100
AcDbLine
10
-102.32587904970784
20
-25.057981316239495
30
0
11
-102.32587904970784
21
-29.457981316239472
31
0
0
LINE
5
133
100
AcDbEntity
8
0
100
AcDbLine
10
-102.32587904970784
20
-29.457981316239472
30
0
11
-85.700879049707837
21
-29.457981316239476
31
0
0
LINE
5
134
100
AcDbEntity
8
0
100
AcDbLine
10
-85.700879049707837
20
-29.457981316239476
30
0
11
-85.700879049707837
21
-25.057981316239495
31
0
0
LINE
5
135
100
AcDbEntity
8
0
100
AcDbLine
10
-85.700879049707837
20
-25.057981316239495
30
0
11
-69.075879049707837
21
-25.057981316239495
31
0
0
LINE
5
136
100
AcDbEntity
8
0
100
AcDbLine
10
-69.075879049707822
20
-25.057981316239484
30
0
11
-69.075879049707822
21
-29.457981316239486
31
0
0
LINE
5
137
100
AcDbEntity
8
0
100
AcDbLine
10
-69.075879049707822
20
-29.457981316239486
30
0
11
-52.450879049707822
21
-29.457981316239486
31
0
0
LINE
5
138
100
AcDbEntity
8
0
100
AcDbLine
10
-52.450879049707822
20
-25.057981316239484
30
0
11
-35.825879049707837
21
-25.057981316239484
31
0
0
LINE
5
139
100
AcDbEntity
8
0
100
AcDbLine
10
-52.450879049707822
20
-29.457981316239486
30
0
11
-52.450879049707822
21
-25.057981316239484
31
0
0
LINE
5
140
100
AcDbEntity
8
0
100
AcDbLine
10
-35.825879049707822
20
-25.057981316239484
30
0
11
-35.825879049707822
21
-29.457981316239486
31
0
0
LINE
5
141
100
AcDbEntity
8
0
100
AcDbLine
10
-35.825879049707822
20
-29.457981316239486
30
0
11
-19.200879049707822
21
-29.457981316239486
31
0
0
LINE
5
142
100
AcDbEntity
8
0
100
AcDbLine
10
-19.200879049707822
20
-25.057981316239484
30
0
11
-2.5758790497078277
21
-25.057981316239484
31
0
0
LINE
5
143
100
AcDbEntity
8
0
100
AcDbLine
10
-19.200879049707822
20
-29.457981316239486
30
0
11
-19.200879049707822
21
-25.057981316239484
31
0
0
LINE
5
144
100
AcDbEntity
8
0
100
AcDbLine
10
-2.5758790497078188
20
-25.057981316239484
30
0
11
-2.5758790497078188
21
-29.457981316239486
31
0
0
LINE
5
145
100
AcDbEntity
8
0
100
AcDbLine
10
-2.5758790497078188
20
-29.457981316239486
30
0
11
14.049120950292178
21
-29.457981316239486
31
0
0
LINE
5
146
100
AcDbEntity
8
0
100
AcDbLine
10
14.049120950292178
20
-25.057981316239484
30
0
11
30.674120950292174
21
-25.057981316239484
31
0
0
LINE
5
147
100
AcDbEntity
8
0
100
AcDbLine
10
14.049120950292178
20
-29.457981316239486
30
0
11
14.049120950292178
21
-25.057981316239484
31
0
0
LINE
5
148
100
AcDbEntity
8
0
100
AcDbLine
10
30.674120950292163
20
24.942018683760505
30
0
11
35.074120950292169
21
24.942018683760505
31
0
0
LINE
5
149
100
AcDbEntity
8
0
100
AcDbLine
10
35.074120950292169
20
24.942018683760505
30
0
11
35.074120950292169
21
12.442018683760505
31
0
0
LINE
5
150
100
AcDbEntity
8
0
100
AcDbLine
10
35.074120950292169
20
12.442018683760505
30
0
11
30.674120950292174
21
12.442018683760505
31
0
0
LINE
5
151
100
AcDbEntity
8
0
100
AcDbLine
10
30.674120950292174
20
12.442018683760505
30
0
11
30.674120950292174
21
-0.057981316239494873
31
0
0
LINE
5
152
100
AcDbEntity
8
0
100
AcDbLine
10
30.674120950292163
20
-0.057981316239494873
30
0
11
35.074120950292169
21
-0.057981316239494873
31
0
0
LINE
5
153
100
AcDbEntity
8
0
100
AcDbLine
10
35.074120950292169
20
-0.057981316239494873
30
0
11
35.074120950292169
21
-12.557981316239495
31
0
0
LINE
5
154
100
AcDbEntity
8
0
100
AcDbLine
10
35.074120950292169
20
-12.557981316239495
30
0
11
30.674120950292174
21
-12.557981316239495
31
0
0
LINE
5
155
100
AcDbEntity
8
0
100
AcDbLine
10
30.674120950292174
20
-12.557981316239495
30
0
11
30.674120950292174
21
-25.057981316239495
31
0
0
LINE
5
156
100
AcDbEntity
8
0
100
AcDbLine
10
-102.32587904970784
20
-25.057981316239495
30
0
11
-102.32587904970784
21
-12.557981316239481
31
0
0
LINE
5
157
100
AcDbEntity
8
0
100
AcDbLine
10
-102.32587904970784
20
-12.557981316239481
30
0
11
-106.72587904970783
21
-12.557981316239486
31
0
0
LINE
5
158
100
AcDbEntity
8
0
100
AcDbLine
10
-106.72587904970783
20
-12.557981316239486
30
0
11
-106.72587904970783
21
-0.057981316239491543
31
0
0
LINE
5
159
100
AcDbEntity
8
0
100
AcDbLine
10
-106.72587904970783
20
-0.057981316239491543
30
0
11
-102.32587904970784
21
-0.057981316239491543
31
0
0
LINE
5
160
100
AcDbEntity
8
0
100
AcDbLine
10
-106.72587904970783
20
24.942018683760516
30
0
11
-102.32587904970784
21
24.942018683760516
31
0
0
LINE
5
161
100
AcDbEntity
8
0
100
AcDbLine
10
-106.72587904970783
20
12.442018683760514
30
0
11
-106.72587904970783
21
24.942018683760516
31
0
0
LINE
5
162
100
AcDbEntity
8
0
100
AcDbLine
10
-102.32587904970784
20
12.442018683760514
30
0
11
-106.72587904970783
21
12.442018683760514
31
0
0
LINE
5
163
100
AcDbEntity
8
0
100
AcDbLine
10
-102.32587904970784
20
-0.057981316239485992
30
0
11
-102.32587904970784
21
12.442018683760514
31
0
0
LINE
5
164
100
AcDbEntity
8
0
100
AcDbLine
10
58.706417836658304
20
-25.118850716325603
30
0
11
58.706417836658304
21
-29.518850716325606
31
0
0
LINE
5
165
100
AcDbEntity
8
0
100
AcDbLine
10
58.706417836658304
20
-29.518850716325606
30
0
11
75.331417836658289
21
-29.518850716325584
31
0
0
LINE
5
166
100
AcDbEntity
8
0
100
AcDbLine
10
75.331417836658289
20
-29.518850716325584
30
0
11
75.331417836658289
21
-25.118850716325575
31
0
0
LINE
5
167
100
AcDbEntity
8
0
100
AcDbLine
10
75.331417836658289
20
-25.118850716325575
30
0
11
91.956417836658289
21
-25.118850716325575
31
0
0
LINE
5
168
100
AcDbEntity
8
0
100
AcDbLine
10
91.956417836658318
20
-25.118850716325593
30
0
11
91.956417836658318
21
-29.518850716325595
31
0
0
LINE
5
169
100
AcDbEntity
8
0
100
AcDbLine
10
91.956417836658318
20
-29.518850716325595
30
0
11
108.58141783665829
21
-29.518850716325595
31
0
0
LINE
5
170
100
AcDbEntity
8
0
100
AcDbLine
10
108.58141783665829
20
-29.518850716325595
30
0
11
108.58141783665829
21
-25.118850716325593
31
0
0
LINE
5
171
100
AcDbEntity
8
0
100
AcDbLine
10
108.58141783665829
20
-25.118850716325593
30
0
11
125.2064178366583
21
-25.118850716325593
31
0
0
LINE
5
172
100
AcDbEntity
8
0
100
AcDbLine
10
125.2064178366583
20
-25.118850716325593
30
0
11
125.2064178366583
21
-29.518850716325595
31
0
0
LINE
5
173
100
AcDbEntity
8
0
100
AcDbLine
10
125.2064178366583
20
-29.518850716325595
30
0
11
141.83141783665832
21
-29.518850716325595
31
0
0
LINE
5
174
100
AcDbEntity
8
0
100
AcDbLine
10
141.83141783665832
20
-29.518850716325595
30
0
11
141.83141783665832
21
-25.118850716325593
31
0
0
LINE
5
175
100
AcDbEntity
8
0
100
AcDbLine
10
141.83141783665832
20
-25.118850716325593
30
0
11
158.45641783665829
21
-25.118850716325593
31
0
0
LINE
5
176
100
AcDbEntity
8
0
100
AcDbLine
10
158.45641783665829
20
-25.118850716325593
30
0
11
158.45641783665829
21
-29.518850716325595
31
0
0
LINE
5
177
100
AcDbEntity
8
0
100
AcDbLine
10
158.45641783665829
20
-29.518850716325595
30
0
11
175.08141783665832
21
-29.518850716325595
31
0
0
LINE
5
178
100
AcDbEntity
8
0
100
AcDbLine
10
175.08141783665832
20
-29.518850716325595
30
0
11
175.08141783665832
21
-25.118850716325593
31
0
0
LINE
5
179
100
AcDbEntity
8
0
100
AcDbLine
10
175.08141783665832
20
-25.118850716325593
30
0
11
191.70641783665832
21
-25.118850716325593
31
0
0
LINE
5
180
100
AcDbEntity
8
0
100
AcDbLine
10
58.706417836658304
20
31.881149283674418
30
0
11
54.306417836658305
21
31.881149283674418
31
0
0
LINE
5
181
100
AcDbEntity
8
0
100
AcDbLine
10
54.306417836658305
20
31.881149283674418
30
0
11
54.306417836658305
21
17.631149283674421
31
0
0
LINE
5
182
100
AcDbEntity
8
0
100
AcDbLine
10
54.306417836658305
20
17.631149283674421
30
0
11
58.706417836658304
21
17.631149283674421
31
0
0
LINE
5
183
100
AcDbEntity
8
0
100
AcDbLine
10
58.706417836658304
20
17.631149283674421
30
0
11
58.706417836658304
21
3.381149283674421
31
0
0
LINE
5
184
100
AcDbEntity
8
0
100
AcDbLine
10
54.306417836658305
20
-10.868850716325593
30
0
11
58.706417836658304
21
-10.868850716325593
31
0
0
LINE
5
185
100
AcDbEntity
8
0
100
AcDbLine
10
54.306417836658305
20
3.3811492836744073
30
0
11
54.306417836658305
21
-10.868850716325593
31
0
0
LINE
5
186
100
AcDbEntity
8
0
100
AcDbLine
10
58.706417836658304
20
-10.868850716325593
30
0
11
58.706417836658304
21
-25.118850716325593
31
0
0
LINE
5
187
100
AcDbEntity
8
0
100
AcDbLine
10
58.706417836658304
20
3.3811492836744073
30
0
11
54.306417836658305
21
3.3811492836744073
31
0
0
LINE
5
188
100
AcDbEntity
8
0
100
AcDbLine
10
191.70641783665829
20
31.881149283674397
30
0
11
196.1064178366583
21
31.881149283674421
31
0
0
LINE
5
189
100
AcDbEntity
8
0
100
AcDbLine
10
196.1064178366583
20
31.881149283674421
30
0
11
196.1064178366583
21
17.631149283674407
31
0
0
LINE
5
190
100
AcDbEntity
8
0
100
AcDbLine
10
196.1064178366583
20
17.631149283674407
30
0
11
191.70641783665829
21
17.631149283674407
31
0
0
LINE
5
191
100
AcDbEntity
8
0
100
AcDbLine
10
191.70641783665829
20
17.631149283674407
30
0
11
191.70641783665829
21
3.3811492836744073
31
0
0
LINE
5
192
100
AcDbEntity
8
0
100
AcDbLine
10
191.70641783665829
20
3.3811492836744073
30
0
11
196.1064178366583
21
3.3811492836744073
31
0
0
LINE
5
193
100
AcDbEntity
8
0
100
AcDbLine
10
196.1064178366583
20
3.3811492836744073
30
0
11
196.1064178366583
21
-10.868850716325593
31
0
0
LINE
5
194
100
AcDbEntity
8
0
100
AcDbLine
10
196.1064178366583
20
-10.868850716325593
30
0
11
191.70641783665829
21
-10.868850716325593
31
0
0
LINE
5
195
100
AcDbEntity
8
0
100
AcDbLine
10
191.70641783665829
20
-10.868850716325593
30
0
11
191.70641783665829
21
-25.118850716325593
31
0
0
LINE
5
196
100
AcDbEntity
8
0
100
AcDbLine
10
-54.808295503091813
20
-84.840306070903495
30
0
11
-54.808295503091813
21
-72.340306070903495
31
0
0
LINE
5
197
100
AcDbEntity
8
0
100
AcDbLine
10
-54.808295503091813
20
-72.340306070903495
30
0
11
-59.208295503091826
21
-72.340306070903495
31
0
0
LINE
5
198
100
AcDbEntity
8
0
100
AcDbLine
10
-120.60829550309182
20
-72.340306070903495
30
0
11
-116.20829550309182
21
-72.340306070903495
31
0
0
LINE
5
199
100
AcDbEntity
8
0
100
AcDbLine
10
-87.708295503091819
20
-55.440306070903503
30
0
11
-101.95829550309183
21
-55.440306070903503
31
0
0
LINE
5
200
100
AcDbEntity
8
0
100
AcDbLine
10
-116.20829550309183
20
-109.84030607090367
30
0
11
-120.60829550309154
21
-109.84030607090372
31
0
0
LINE
5
201
100
AcDbEntity
8
0
100
AcDbLine
10
-116.20829550309182
20
-84.840306070903495
30
0
11
-120.60829550309182
21
-84.840306070903495
31
0
0
LINE
5
202
100
AcDbEntity
8
0
100
AcDbLine
10
-101.95829550309183
20
-59.840306070903502
30
0
11
-116.20829550309183
21
-59.840306070903502
31
0
0
LINE
5
203
100
AcDbEntity
8
0
100
AcDbLine
10
-59.208295503091826
20
-84.840306070903495
30
0
11
-54.808295503091813
21
-84.840306070903495
31
0
0
LINE
5
204
100
AcDbEntity
8
0
100
AcDbLine
10
-116.20829550309182
20
-72.340306070903495
30
0
11
-116.20829550309182
21
-59.840306070903502
31
0
0
LINE
5
205
100
AcDbEntity
8
0
100
AcDbLine
10
-87.708295503091819
20
-59.840306070903502
30
0
11
-87.708295503091819
21
-55.440306070903503
31
0
0
LINE
5
206
100
AcDbEntity
8
0
100
AcDbLine
10
-116.20829550309182
20
-97.340306070903495
30
0
11
-116.20829550309182
21
-84.840306070903495
31
0
0
LINE
5
207
100
AcDbEntity
8
0
100
AcDbLine
10
-120.60829550309181
20
-97.340306070903495
30
0
11
-116.20829550309182
21
-97.340306070903495
31
0
0
LINE
5
208
100
AcDbEntity
8
0
100
AcDbLine
10
-59.208295503091826
20
-109.84030607090349
30
0
11
-54.808295503091813
21
-109.84030607090349
31
0
0
LINE
5
209
100
AcDbEntity
8
0
100
AcDbLine
10
-59.208295503091826
20
-59.840306070903509
30
0
11
-59.208295503091826
21
-55.440306070903503
31
0
0
LINE
5
210
100
AcDbEntity
8
0
100
AcDbLine
10
-101.95829550309183
20
-55.440306070903503
30
0
11
-101.95829550309183
21
-59.840306070903502
31
0
0
LINE
5
211
100
AcDbEntity
8
0
100
AcDbLine
10
-120.60829550309182
20
-84.840306070903495
30
0
11
-120.60829550309182
21
-72.340306070903495
31
0
0
LINE
5
212
100
AcDbEntity
8
0
100
AcDbLine
10
-59.208295503091826
20
-97.340306070903495
30
0
11
-59.208295503091826
21
-84.840306070903495
31
0
0
LINE
5
213
100
AcDbEntity
8
0
100
AcDbLine
10
-54.808295503091813
20
-109.84030607090349
30
0
11
-54.808295503091813
21
-97.340306070903495
31
0
0
LINE
5
214
100
AcDbEntity
8
0
100
AcDbLine
10
-120.60829550309154
20
-109.84030607090372
30
0
11
-120.60829550309181
21
-97.340306070903495
31
0
0
LINE
5
215
100
AcDbEntity
8
0
100
AcDbLine
10
-73.458295503091833
20
-59.840306070903502
30
0
11
-87.708295503091847
21
-59.840306070903502
31
0
0
LINE
5
216
100
AcDbEntity
8
0
100
AcDbLine
10
-54.808295503091813
20
-97.340306070903495
30
0
11
-59.208295503091826
21
-97.340306070903495
31
0
0
LINE
5
217
100
AcDbEntity
8
0
100
AcDbLine
10
-73.458295503091833
20
-55.440306070903503
30
0
11
-73.458295503091833
21
-59.840306070903502
31
0
0
LINE
5
218
100
AcDbEntity
8
0
100
AcDbLine
10
-59.208295503091826
20
-55.440306070903503
30
0
11
-73.458295503091833
21
-55.440306070903503
31
0
0
LINE
5
219
100
AcDbEntity
8
0
100
AcDbLine
10
-59.208295503091826
20
-72.340306070903495
30
0
11
-59.208295503091826
21
-59.840306070903509
31
0
0
LINE
5
220
100
AcDbEntity
8
0
100
AcDbLine
10
108.23747326547578
20
-41.085312372410726
30
0
11
108.23747326547578
21
-36.685312372410721
31
0
0
LINE
5
221
100
AcDbEntity
8
0
100
AcDbLine
10
58.362473265475785
20
-41.085312372410726
30
0
11
74.987473265475757
21
-41.085312372410726
31
0
0
LINE
5
222
100
AcDbEntity
8
0
100
AcDbLine
10
124.86247326547581
20
-98.085312372410712
30
0
11
141.48747326547578
21
-98.085312372410712
31
0
0
LINE
5
223
100
AcDbEntity
8
0
100
AcDbLine
10
141.48747326547578
20
-36.685312372410721
30
0
11
158.11247326547578
21
-36.685312372410721
31
0
0
LINE
5
224
100
AcDbEntity
8
0
100
AcDbLine
10
158.11247326547578
20
-36.685312372410721
30
0
11
158.11247326547578
21
-41.085312372410726
31
0
0
LINE
5
225
100
AcDbEntity
8
0
100
AcDbLine
10
158.11247326547578
20
-41.085312372410726
30
0
11
174.73747326547578
21
-41.085312372410733
31
0
0
LINE
5
226
100
AcDbEntity
8
0
100
AcDbLine
10
74.987473265475799
20
-102.4853123724107
30
0
11
91.612473265475785
21
-102.4853123724107
31
0
0
LINE
5
227
100
AcDbEntity
8
0
100
AcDbLine
10
37.337473265475793
20
-69.585312372410726
30
0
11
37.337473265475793
21
-83.835312372410726
31
0
0
LINE
5
228
100
AcDbEntity
8
0
100
AcDbLine
10
174.73747326547578
20
-83.835312372410726
30
0
11
174.73747326547578
21
-98.085312372410712
31
0
0
LINE
5
229
100
AcDbEntity
8
0
100
AcDbLine
10
74.987473265475799
20
-98.085312372410712
30
0
11
74.987473265475799
21
-102.4853123724107
31
0
0
LINE
5
230
100
AcDbEntity
8
0
100
AcDbLine
10
108.23747326547578
20
-102.4853123724107
30
0
11
124.86247326547581
21
-102.4853123724107
31
0
0
LINE
5
231
100
AcDbEntity
8
0
100
AcDbLine
10
174.73747326547578
20
-69.585312372410726
30
0
11
179.13747326547579
21
-69.585312372410726
31
0
0
LINE
5
232
100
AcDbEntity
8
0
100
AcDbLine
10
179.13747326547579
20
-69.585312372410726
30
0
11
179.13747326547579
21
-83.835312372410726
31
0
0
LINE
5
233
100
AcDbEntity
8
0
100
AcDbLine
10
179.13747326547579
20
-83.835312372410726
30
0
11
174.73747326547578
21
-83.835312372410726
31
0
0
LINE
5
234
100
AcDbEntity
8
0
100
AcDbLine
10
174.73747326547578
20
-41.085312372410733
30
0
11
179.13747326547579
21
-41.085312372410705
31
0
0
LINE
5
235
100
AcDbEntity
8
0
100
AcDbLine
10
174.73747326547578
20
-55.335312372410719
30
0
11
174.73747326547578
21
-69.585312372410726
31
0
0
LINE
5
236
100
AcDbEntity
8
0
100
AcDbLine
10
158.11247326547578
20
-98.085312372410712
30
0
11
174.73747326547581
21
-98.085312372410712
31
0
0
LINE
5
237
100
AcDbEntity
8
0
100
AcDbLine
10
124.86247326547577
20
-41.085312372410726
30
0
11
141.48747326547578
21
-41.085312372410726
31
0
0
LINE
5
238
100
AcDbEntity
8
0
100
AcDbLine
10
179.13747326547579
20
-41.085312372410705
30
0
11
179.13747326547579
21
-55.335312372410719
31
0
0
LINE
5
239
100
AcDbEntity
8
0
100
AcDbLine
10
108.23747326547578
20
-98.085312372410712
30
0
11
108.23747326547578
21
-102.4853123724107
31
0
0
LINE
5
240
100
AcDbEntity
8
0
100
AcDbLine
10
124.86247326547581
20
-102.4853123724107
30
0
11
124.86247326547581
21
-98.085312372410712
31
0
0
LINE
5
241
100
AcDbEntity
8
0
100
AcDbLine
10
141.48747326547578
20
-98.085312372410712
30
0
11
141.48747326547578
21
-102.4853123724107
31
0
0
LINE
5
242
100
AcDbEntity
8
0
100
AcDbLine
10
179.13747326547579
20
-55.335312372410719
30
0
11
174.73747326547578
21
-55.335312372410719
31
0
0
LINE
5
243
100
AcDbEntity
8
0
100
AcDbLine
10
37.337473265475793
20
-83.835312372410726
30
0
11
41.737473265475785
21
-83.835312372410726
31
0
0
LINE
5
244
100
AcDbEntity
8
0
100
AcDbLine
10
124.86247326547577
20
-36.685312372410721
30
0
11
124.86247326547577
21
-41.085312372410726
31
0
0
LINE
5
245
100
AcDbEntity
8
0
100
AcDbLine
10
41.737473265475785
20
-69.585312372410726
30
0
11
37.337473265475793
21
-69.585312372410726
31
0
0
LINE
5
246
100
AcDbEntity
8
0
100
AcDbLine
10
158.11247326547578
20
-102.4853123724107
30
0
11
158.11247326547578
21
-98.085312372410712
31
0
0
LINE
5
247
100
AcDbEntity
8
0
100
AcDbLine
10
58.362473265475785
20
-36.685312372410721
30
0
11
58.362473265475785
21
-41.085312372410726
31
0
0
LINE
5
248
100
AcDbEntity
8
0
100
AcDbLine
10
108.23747326547578
20
-36.685312372410721
30
0
11
124.86247326547577
21
-36.685312372410721
31
0
0
LINE
5
249
100
AcDbEntity
8
0
100
AcDbLine
10
74.987473265475799
20
-41.085312372410726
30
0
11
74.987473265475799
21
-36.685312372410721
31
0
0
LINE
5
250
100
AcDbEntity
8
0
100
AcDbLine
10
141.48747326547578
20
-102.4853123724107
30
0
11
158.11247326547578
21
-102.4853123724107
31
0
0
LINE
5
251
100
AcDbEntity
8
0
100
AcDbLine
10
91.612473265475785
20
-98.085312372410712
30
0
11
108.23747326547578
21
-98.085312372410712
31
0
0
LINE
5
252
100
AcDbEntity
8
0
100
AcDbLine
10
41.737473265475785
20
-83.835312372410726
30
0
11
41.737473265475785
21
-98.085312372410712
31
0
0
LINE
5
253
100
AcDbEntity
8
0
100
AcDbLine
10
37.337473265475793
20
-41.085312372410705
30
0
11
37.337473265475793
21
-55.335312372410712
31
0
0
LINE
5
254
100
AcDbEntity
8
0
100
AcDbLine
10
58.362473265475785
20
-98.085312372410698
30
0
11
74.987473265475785
21
-98.085312372410698
31
0
0
LINE
5
255
100
AcDbEntity
8
0
100
AcDbLine
10
91.612473265475785
20
-36.685312372410721
30
0
11
91.612473265475785
21
-41.085312372410726
31
0
0
LINE
5
256
100
AcDbEntity
8
0
100
AcDbLine
10
41.737473265475785
20
-55.335312372410705
30
0
11
41.737473265475785
21
-69.585312372410698
31
0
0
LINE
5
257
100
AcDbEntity
8
0
100
AcDbLine
10
41.737473265475785
20
-41.085312372410705
30
0
11
37.337473265475793
21
-41.085312372410705
31
0
0
LINE
5
258
100
AcDbEntity
8
0
100
AcDbLine
10
91.612473265475785
20
-102.4853123724107
30
0
11
91.612473265475785
21
-98.085312372410712
31
0
0
LINE
5
259
100
AcDbEntity
8
0
100
AcDbLine
10
41.737473265475785
20
-102.48531237241073
30
0
11
58.362473265475785
21
-102.4853123724107
31
0
0
LINE
5
260
100
AcDbEntity
8
0
100
AcDbLine
10
41.737473265475785
20
-98.085312372410726
30
0
11
41.737473265475785
21
-102.48531237241073
31
0
0
LINE
5
261
100
AcDbEntity
8
0
100
AcDbLine
10
41.737473265475785
20
-41.085312372410705
30
0
11
41.737473265475785
21
-36.685312372410721
31
0
0
LINE
5
262
100
AcDbEntity
8
0
100
AcDbLine
10
74.987473265475799
20
-36.685312372410721
30
0
11
91.612473265475785
21
-36.685312372410721
31
0
0
LINE
5
263
100
AcDbEntity
8
0
100
AcDbLine
10
141.48747326547578
20
-41.085312372410726
30
0
11
141.48747326547578
21
-36.685312372410721
31
0
0
LINE
5
264
100
AcDbEntity
8
0
100
AcDbLine
10
41.737473265475785
20
-36.685312372410721
30
0
11
58.362473265475785
21
-36.685312372410721
31
0
0
LINE
5
265
100
AcDbEntity
8
0
100
AcDbLine
10
58.362473265475785
20
-102.4853123724107
30
0
11
58.362473265475785
21
-98.085312372410698
31
0
0
LINE
5
266
100
AcDbEntity
8
0
100
AcDbLine
10
91.612473265475785
20
-41.085312372410726
30
0
11
108.23747326547576
21
-41.085312372410726
31
0
0
LINE
5
267
100
AcDbEntity
8
0
100
AcDbLine
10
37.337473265475793
20
-55.335312372410712
30
0
11
41.737473265475785
21
-55.335312372410705
31
0
0
LINE
5
268
100
AcDbEntity
8
0
100
AcDbLine
10
37.461698778765268
20
84.135809497006932
30
0
11
37.461698778765268
21
71.635809497006932
31
0
0
LINE
5
269
100
AcDbEntity
8
0
100
AcDbLine
10
41.861698778765266
20
71.635809497006932
30
0
11
41.861698778765266
21
59.135809497006932
31
0
0
LINE
5
270
100
AcDbEntity
8
0
100
AcDbLine
10
41.861698778765266
20
84.135809497006932
30
0
11
37.461698778765268
21
84.135809497006932
31
0
0
LINE
5
271
100
AcDbEntity
8
0
100
AcDbLine
10
-95.538301221234732
20
46.635809497006932
30
0
11
-95.538301221234732
21
42.235809497006954
31
0
0
LINE
5
272
100
AcDbEntity
8
0
100
AcDbLine
10
-99.938301221234724
20
71.635809497006932
30
0
11
-95.538301221234732
21
71.635809497006932
31
0
0
LINE
5
273
100
AcDbEntity
8
0
100
AcDbLine
10
4.2116987787652782
20
46.635809497006939
30
0
11
4.2116987787652782
21
42.235809497006933
31
0
0
LINE
5
274
100
AcDbEntity
8
0
100
AcDbLine
10
37.46169877876526
20
96.635809497006932
30
0
11
41.861698778765266
21
96.635809497006932
31
0
0
LINE
5
275
100
AcDbEntity
8
0
100
AcDbLine
10
-99.938301221234724
20
84.135809497006946
30
0
11
-99.938301221234724
21
96.635809497006946
31
0
0
LINE
5
276
100
AcDbEntity
8
0
100
AcDbLine
10
-45.663301221234732
20
42.235809497006933
30
0
11
-45.663301221234732
21
46.635809497006939
31
0
0
LINE
5
277
100
AcDbEntity
8
0
100
AcDbLine
10
-12.413301221234745
20
101.03580949700692
30
0
11
-12.413301221234745
21
96.635809497006932
31
0
0
LINE
5
278
100
AcDbEntity
8
0
100
AcDbLine
10
4.2116987787652782
20
96.635809497006932
30
0
11
4.2116987787652782
21
101.03580949700692
31
0
0
LINE
5
279
100
AcDbEntity
8
0
100
AcDbLine
10
-78.913301221234747
20
46.635809497006932
30
0
11
-62.288301221234747
21
46.635809497006932
31
0
0
LINE
5
280
100
AcDbEntity
8
0
100
AcDbLine
10
-95.538301221234732
20
71.635809497006932
30
0
11
-95.538301221234732
21
84.135809497006946
31
0
0
LINE
5
281
100
AcDbEntity
8
0
100
AcDbLine
10
-12.413301221234745
20
96.635809497006932
30
0
11
4.2116987787652516
21
96.635809497006932
31
0
0
LINE
5
282
100
AcDbEntity
8
0
100
AcDbLine
10
-95.538301221234732
20
59.135809497006946
30
0
11
-99.938301221234724
21
59.135809497006939
31
0
0
LINE
5
283
100
AcDbEntity
8
0
100
AcDbLine
10
-12.413301221234727
20
42.235809497006933
30
0
11
-12.413301221234727
21
46.635809497006939
31
0
0
LINE
5
284
100
AcDbEntity
8
0
100
AcDbLine
10
-62.288301221234725
20
46.635809497006939
30
0
11
-62.288301221234725
21
42.235809497006933
31
0
0
LINE
5
285
100
AcDbEntity
8
0
100
AcDbLine
10
-45.663301221234732
20
46.635809497006939
30
0
11
-29.038301221234736
21
46.635809497006939
31
0
0
LINE
5
286
100
AcDbEntity
8
0
100
AcDbLine
10
-62.288301221234725
20
42.235809497006933
30
0
11
-45.663301221234732
21
42.235809497006933
31
0
0
LINE
5
287
100
AcDbEntity
8
0
100
AcDbLine
10
-95.538301221234732
20
46.635809497006932
30
0
11
-95.538301221234732
21
59.135809497006946
31
0
0
LINE
5
288
100
AcDbEntity
8
0
100
AcDbLine
10
-29.038301221234725
20
46.635809497006939
30
0
11
-29.038301221234725
21
42.235809497006933
31
0
0
LINE
5
289
100
AcDbEntity
8
0
100
AcDbLine
10
-29.038301221234725
20
42.235809497006933
30
0
11
-12.413301221234727
21
42.235809497006933
31
0
0
LINE
5
290
100
AcDbEntity
8
0
100
AcDbLine
10
-78.913301221234747
20
101.03580949700692
30
0
11
-78.913301221234747
21
96.635809497006932
31
0
0
LINE
5
291
100
AcDbEntity
8
0
100
AcDbLine
10
-29.038301221234725
20
96.635809497006932
30
0
11
-29.038301221234725
21
101.03580949700692
31
0
0
LINE
5
292
100
AcDbEntity
8
0
100
AcDbLine
10
-95.538301221234732
20
101.03580949700692
30
0
11
-78.913301221234747
21
101.03580949700692
31
0
0
LINE
5
293
100
AcDbEntity
8
0
100
AcDbLine
10
4.2116987787652782
20
42.235809497006933
30
0
11
20.836698778765275
21
42.235809497006933
31
0
0
LINE
5
294
100
AcDbEntity
8
0
100
AcDbLine
10
-29.038301221234725
20
101.03580949700692
30
0
11
-12.413301221234745
21
101.03580949700692
31
0
0
LINE
5
295
100
AcDbEntity
8
0
100
AcDbLine
10
4.2116987787652782
20
101.03580949700692
30
0
11
20.836698778765268
21
101.03580949700692
31
0
0
LINE
5
296
100
AcDbEntity
8
0
100
AcDbLine
10
-62.288301221234725
20
101.03580949700692
30
0
11
-45.663301221234747
21
101.03580949700692
31
0
0
LINE
5
297
100
AcDbEntity
8
0
100
AcDbLine
10
-78.913301221234747
20
42.235809497006954
30
0
11
-78.913301221234747
21
46.635809497006932
31
0
0
LINE
5
298
100
AcDbEntity
8
0
100
AcDbLine
10
-12.413301221234727
20
46.635809497006939
30
0
11
4.2116987787652693
21
46.635809497006939
31
0
0
LINE
5
299
100
AcDbEntity
8
0
100
AcDbLine
10
20.836698778765268
20
96.635809497006932
30
0
11
37.46169877876526
21
96.635809497006932
31
0
0
LINE
5
300
100
AcDbEntity
8
0
100
AcDbLine
10
-45.663301221234747
20
101.03580949700692
30
0
11
-45.663301221234747
21
96.635809497006932
31
0
0
LINE
5
301
100
AcDbEntity
8
0
100
AcDbLine
10
-95.538301221234732
20
84.135809497006946
30
0
11
-99.938301221234724
21
84.135809497006946
31
0
0
LINE
5
302
100
AcDbEntity
8
0
100
AcDbLine
10
-45.663301221234747
20
96.635809497006932
30
0
11
-29.03830122123475
21
96.635809497006932
31
0
0
LINE
5
303
100
AcDbEntity
8
0
100
AcDbLine
10
41.861698778765266
20
96.635809497006932
30
0
11
41.861698778765266
21
84.135809497006932
31
0
0
LINE
5
304
100
AcDbEntity
8
0
100
AcDbLine
10
-62.288301221234725
20
96.635809497006932
30
0
11
-62.288301221234725
21
101.03580949700692
31
0
0
LINE
5
305
100
AcDbEntity
8
0
100
AcDbLine
10
20.836698778765268
20
101.03580949700692
30
0
11
20.836698778765268
21
96.635809497006932
31
0
0
LINE
5
306
100
AcDbEntity
8
0
100
AcDbLine
10
-95.538301221234732
20
42.235809497006954
30
0
11
-78.913301221234747
21
42.235809497006954
31
0
0
LINE
5
307
100
AcDbEntity
8
0
100
AcDbLine
10
-78.913301221234747
20
96.635809497006932
30
0
11
-62.288301221234754
21
96.635809497006932
31
0
0
LINE
5
308
100
AcDbEntity
8
0
100
AcDbLine
10
-99.938301221234724
20
59.135809497006939
30
0
11
-99.938301221234724
21
71.635809497006932
31
0
0
LINE
5
309
100
AcDbEntity
8
0
100
AcDbLine
10
-99.938301221234724
20
96.635809497006946
30
0
11
-95.538301221234732
21
96.635809497006946
31
0
0
LINE
5
310
100
AcDbEntity
8
0
100
AcDbLine
10
37.461698778765268
20
59.135809497006932
30
0
11
37.461698778765268
21
46.635809497006932
31
0
0
LINE
5
311
100
AcDbEntity
8
0
100
AcDbLine
10
20.836698778765275
20
46.635809497006939
30
0
11
37.461698778765268
21
46.635809497006939
31
0
0
LINE
5
312
100
AcDbEntity
8
0
100
AcDbLine
10
41.861698778765266
20
59.135809497006932
30
0
11
37.461698778765268
21
59.135809497006932
31
0
0
LINE
5
313
100
AcDbEntity
8
0
100
AcDbLine
10
20.836698778765275
20
42.235809497006933
30
0
11
20.836698778765275
21
46.635809497006939
31
0
0
LINE
5
314
100
AcDbEntity
8
0
100
AcDbLine
10
37.46169877876526
20
71.635809497006932
30
0
11
41.861698778765266
21
71.635809497006932
31
0
0
LINE
5
315
100
AcDbEntity
8
0
100
AcDbLine
10
-95.538301221234732
20
96.635809497006932
30
0
11
-95.538301221234732
21
101.03580949700692
31
0
0
LWPOLYLINE
5
316
100
AcDbEntity
8
0
100
AcDbPolyline
90
4
70
1
43
0.0
10
-80.249705764976824
20
-70.40225776426054
10
-70.249705764976824
20
-70.40225776426054
10
-70.249705764976824
20
-100.40225776426054
10
-80.249705764976824
20
-100.40225776426054
0
LWPOLYLINE
5
317
100
AcDbEntity
8
0
100
AcDbPolyline
90
4
70
1
43
0.0
10
-105.24970576497682
20
-77.40225776426054
10
-97.794456153222825
20
-77.40225776426054
10
-97.794456153222825
20
-92.25552109923018
10
-105.24970576497682
20
-92.25552109923018
0
LINE
5
318
100
AcDbEntity
8
0
100
AcDbLine
10
-116.20829550309183
20
-109.84030607090367
30
0
11
-116.20829550309183
21
-114.24030607090366
31
0
0
LINE
5
319
100
AcDbEntity
8
0
100
AcDbLine
10
-116.20829550309183
20
-114.24030607090366
30
0
11
-101.9582955030921
21
-114.2403060709036
31
0
0
LINE
5
320
100
AcDbEntity
8
0
100
AcDbLine
10
-101.9582955030921
20
-114.2403060709036
30
0
11
-101.95829550309183
21
-109.84030607090367
31
0
0
LINE
5
321
100
AcDbEntity
8
0
100
AcDbLine
10
-101.95829550309183
20
-109.84030607090367
30
0
11
-87.708295503091819
21
-109.84030607090359
31
0
0
LINE
5
322
100
AcDbEntity
8
0
100
AcDbLine
10
-73.458295503091819
20
-114.24030607090366
30
0
11
-73.458295503091833
21
-109.84030607090367
31
0
0
LINE
5
323
100
AcDbEntity
8
0
100
AcDbLine
10
-73.458295503091833
20
-109.84030607090367
30
0
11
-59.208295503091826
21
-109.84030607090359
31
0
0
LINE
5
324
100
AcDbEntity
8
0
100
AcDbLine
10
-87.708295503091819
20
-114.24030607090366
30
0
11
-73.458295503091819
21
-114.24030607090366
31
0
0
LINE
5
325
100
AcDbEntity
8
0
100
AcDbLine
10
-87.708295503091819
20
-109.84030607090367
30
0
11
-87.708295503091819
21
-114.24030607090366
31
0
0
CIRCLE
5
326
100
AcDbEntity
8
0
100
AcDbCircle
10
85
20
12
30
0
40
2.6499999999999977
210
0
220
0
230
1
0
CIRCLE
5
327
100
AcDbEntity
8
0
100
AcDbCircle
10
104.72050363370636
20
12
30
0
40
2.6500000000000004
210
0
220
0
230
1
0
CIRCLE
5
328
100
AcDbEntity
8
0
100
AcDbCircle
10
85
20
-6.498768751363972
30
0
40
2.649999999999999
210
0
220
0
230
1
0
CIRCLE
5
329
100
AcDbEntity
8
0
100
AcDbCircle
10
104.72050363370636
20
-6.498768751363972
30
0
40
2.6500000000000012
210
0
220
0
230
1
0
LINE
5
330
100
AcDbEntity
8
0
100
AcDbLine
10
-22.646929581857353
20
-54.006968132567948
30
0
11
-22.646929581857353
21
-58.406968132567947
31
0
0
LINE
5
331
100
AcDbEntity
8
0
100
AcDbLine
10
20.10307041814265
20
-54.006968132567948
30
0
11
5.8530704181426429
21
-54.006968132567962
31
0
0
LINE
5
332
100
AcDbEntity
8
0
100
AcDbLine
10
24.503070418142663
20
-95.906968132567954
30
0
11
20.10307041814265
21
-95.906968132567954
31
0
0
LINE
5
333
100
AcDbEntity
8
0
100
AcDbLine
10
-36.896929581857378
20
-108.4069681325681
30
0
11
-36.896929581857805
21
-112.80696813257447
31
0
0
LINE
5
334
100
AcDbEntity
8
0
100
AcDbLine
10
5.8530704181426429
20
-108.40696813256811
30
0
11
20.10307041814265
21
-108.40696813256804
31
0
0
LINE
5
335
100
AcDbEntity
8
0
100
AcDbLine
10
-36.896929581857343
20
-83.406968132567954
30
0
11
-41.296929581857356
21
-83.406968132567954
31
0
0
LINE
5
336
100
AcDbEntity
8
0
100
AcDbLine
10
-41.296929581857341
20
-95.906968132567954
30
0
11
-36.896929581857343
21
-95.906968132567954
31
0
0
LINE
5
337
100
AcDbEntity
8
0
100
AcDbLine
10
20.10307041814265
20
-70.906968132567954
30
0
11
20.10307041814265
21
-58.406968132567954
31
0
0
LINE
5
338
100
AcDbEntity
8
0
100
AcDbLine
10
-41.296929581857356
20
-70.906968132567954
30
0
11
-36.896929581857343
21
-70.906968132567954
31
0
0
LINE
5
339
100
AcDbEntity
8
0
100
AcDbLine
10
20.10307041814265
20
-108.40696813256795
30
0
11
24.503070418142663
21
-108.40696813256795
31
0
0
LINE
5
340
100
AcDbEntity
8
0
100
AcDbLine
10
-36.896929581857343
20
-95.906968132567954
30
0
11
-36.896929581857343
21
-83.406968132567954
31
0
0
LINE
5
341
100
AcDbEntity
8
0
100
AcDbLine
10
-8.3969295818573464
20
-112.8069681325681
30
0
11
5.8530704181426607
21
-112.8069681325681
31
0
0
LINE
5
342
100
AcDbEntity
8
0
100
AcDbLine
10
-8.3969295818573464
20
-108.40696813256811
30
0
11
-8.3969295818573464
21
-112.8069681325681
31
0
0
LINE
5
343
100
AcDbEntity
8
0
100
AcDbLine
10
24.503070418142663
20
-83.406968132567954
30
0
11
24.503070418142663
21
-70.906968132567954
31
0
0
LINE
5
344
100
AcDbEntity
8
0
100
AcDbLine
10
-36.896929581857378
20
-108.4069681325681
30
0
11
-41.296929581859416
21
-108.40696813256558
31
0
0
LINE
5
345
100
AcDbEntity
8
0
100
AcDbLine
10
-41.296929581859416
20
-108.40696813256558
30
0
11
-41.296929581857341
21
-95.906968132567954
31
0
0
LINE
5
346
100
AcDbEntity
8
0
100
AcDbLine
10
20.10307041814265
20
-95.906968132567954
30
0
11
20.10307041814265
21
-83.406968132567954
31
0
0
LINE
5
347
100
AcDbEntity
8
0
100
AcDbLine
10
-22.646929581850408
20
-112.80696813257448
30
0
11
-22.646929581857353
21
-108.40696813256811
31
0
0
LINE
5
348
100
AcDbEntity
8
0
100
AcDbLine
10
5.8530704181426429
20
-58.406968132567947
30
0
11
-8.3969295818573642
21
-58.406968132567947
31
0
0
LINE
5
349
100
AcDbEntity
8
0
100
AcDbLine
10
-36.896929581857805
20
-112.80696813257447
30
0
11
-22.646929581850408
21
-112.80696813257448
31
0
0
LINE
5
350
100
AcDbEntity
8
0
100
AcDbLine
10
-22.646929581857353
20
-108.40696813256811
30
0
11
-8.3969295818573464
21
-108.40696813256804
31
0
0
LINE
5
351
100
AcDbEntity
8
0
100
AcDbLine
10
-41.296929581857356
20
-83.406968132567954
30
0
11
-41.296929581857356
21
-70.906968132567954
31
0
0
LINE
5
352
100
AcDbEntity
8
0
100
AcDbLine
10
24.503070418142663
20
-70.906968132567954
30
0
11
20.10307041814265
21
-70.906968132567954
31
0
0
LINE
5
353
100
AcDbEntity
8
0
100
AcDbLine
10
-22.646929581857353
20
-58.406968132567947
30
0
11
-36.896929581857364
21
-58.406968132567947
31
0
0
LINE
5
354
100
AcDbEntity
8
0
100
AcDbLine
10
5.8530704181426607
20
-112.8069681325681
30
0
11
5.8530704181426429
21
-108.40696813256811
31
0
0
LINE
5
355
100
AcDbEntity
8
0
100
AcDbLine
10
20.10307041814265
20
-58.406968132567954
30
0
11
20.10307041814265
21
-54.006968132567948
31
0
0
LINE
5
356
100
AcDbEntity
8
0
100
AcDbLine
10
-8.3969295818573464
20
-54.006968132567948
30
0
11
-22.646929581857353
21
-54.006968132567948
31
0
0
LINE
5
357
100
AcDbEntity
8
0
100
AcDbLine
10
5.8530704181426429
20
-54.006968132567962
30
0
11
5.8530704181426429
21
-58.406968132567947
31
0
0
LINE
5
358
100
AcDbEntity
8
0
100
AcDbLine
10
-8.3969295818573464
20
-58.406968132567947
30
0
11
-8.3969295818573464
21
-54.006968132567948
31
0
0
LINE
5
359
100
AcDbEntity
8
0
100
AcDbLine
10
20.10307041814265
20
-83.406968132567954
30
0
11
24.503070418142663
21
-83.406968132567954
31
0
0
LINE
5
360
100
AcDbEntity
8
0
100
AcDbLine
10
-36.896929581857343
20
-70.906968132567954
30
0
11
-36.896929581857343
21
-58.406968132567947
31
0
0
LINE
5
361
100
AcDbEntity
8
0
100
AcDbLine
10
24.503070418142663
20
-108.40696813256795
30
0
11
24.503070418142663
21
-95.906968132567954
31
0
0
ENDSEC
0
SECTION
2
OBJECTS
0
DICTIONARY
5
C
100
AcDbDictionary
3
ACAD_GROUP
350
D
3
ACAD_MLINESTYLE
350
17
0
DICTIONARY
5
D
100
AcDbDictionary
0
DICTIONARY
5
1A
330
C
100
AcDbDictionary
0
DICTIONARY
5
17
100
AcDbDictionary
0
ENDSEC
0
EOF
